<?xml version="1.0" encoding="utf-8"?>
<!-- Generator: Adobe Illustrator 21.0.2, SVG Export Plug-In . SVG Version: 6.00 Build 0)  -->
<svg version="1.1" id="Calque_2" xmlns="http://www.w3.org/2000/svg" xmlns:xlink="http://www.w3.org/1999/xlink" x="0px" y="0px"
	 viewBox="0 0 250.8 143.7" style="enable-background:new 0 0 250.8 143.7;" xml:space="preserve">
<style type="text/css">
	.st0{fill:#704E9A;}
	.st1{fill:#D9C8E3;}
	.st2{fill:#517FC0;}
	.st3{fill:#C2DCF4;}
	.st4{fill:#353535;}
</style>
<path class="st0" d="M182.5,68.5c5.6,6.5,10.3,16,4.6,24.8c-12.8,19.8-16.2,19.6-19.8,33.6c-6.6,25.8-14.8,17.8-24.3,4
	c-9.4-13.8-17.6-63.1-13.2-76.1C134.2,41.6,176.9,62,182.5,68.5z"/>
<path class="st0" d="M68.3,68.5c-5.6,6.5-10.3,16-4.6,24.8c12.8,19.8,16.2,19.6,19.8,33.6c6.6,25.8,14.8,17.8,24.3,4
	c9.4-13.8,17.6-63.1,13.2-76.1C116.6,41.6,73.9,62,68.3,68.5z"/>
<path class="st1" d="M177.3,68.8c5.1,5.9,9.3,14.5,4.2,22.5c-11.6,18-14.8,17.8-18,30.5c-6,23.5-13.5,16.2-22.1,3.7
	c-8.6-12.5-16-57.3-12-69.2C133.4,44.4,172.2,62.9,177.3,68.8z"/>
<path class="st1" d="M73.5,68.8c-5.1,5.9-9.3,14.5-4.2,22.5c11.6,18,14.8,17.8,18,30.5c6,23.5,13.5,16.2,22.1,3.7
	c8.6-12.5,16-57.3,12-69.2C117.4,44.4,78.6,62.9,73.5,68.8z"/>
<path class="st2" d="M128.8,49.9c0,0,14.5-35.1,60.9-42.6c26-4.3,58.5-5.7,60.9,6.2c3.3,16-38.7,38.3-40.4,47.6
	c-3.9,20.5-14.5,22.7-36.1,27c-16.8,3.3-47.9-5.8-46-25.7C128.6,56.6,125,57.2,128.8,49.9"/>
<path class="st2" d="M122,49.9c0,0-14.5-35.1-60.9-42.6C35.1,3,2.7,1.5,0.2,13.4c-3.3,16,38.7,38.3,40.4,47.6
	c3.9,20.5,14.5,22.7,36.1,27c16.8,3.3,47.9-5.8,46-25.7C122.2,56.6,125.8,57.2,122,49.9"/>
<path class="st3" d="M128.5,46.5c0,0,13.2-31.9,55.3-38.8c23.7-3.9,53.1-5.2,55.4,5.6c3,14.6-35.2,34.8-36.8,43.3
	c-3.5,18.6-13.2,20.7-32.8,24.5c-15.2,3-43.5-5.3-41.9-23.4C128.3,52.6,125.1,53.1,128.5,46.5"/>
<path class="st3" d="M122.3,46.5c0,0-13.2-31.9-55.3-38.8c-23.7-3.9-53.1-5.2-55.4,5.6c-3,14.6,35.2,34.8,36.8,43.3
	c3.5,18.6,13.2,20.7,32.8,24.5c15.2,3,43.5-5.3,41.9-23.4C122.5,52.6,125.7,53.1,122.3,46.5"/>
<path class="st4" d="M123.7,41.3c0-1.4-0.6-34.2-20.3-40.5c-15.5-4.9,9.3,14.3,15,30.1S123.7,41.3,123.7,41.3z"/>
<path class="st4" d="M127.1,41.3c0-1.4,0.6-34.2,20.3-40.5c15.5-4.9-9.3,14.3-15,30.1S127.1,41.3,127.1,41.3z"/>
<path class="st4" d="M119.2,75.2c0-12,2.7-21.8,6.1-21.8c3.3,0,6.1,9.8,6.1,21.8S128.6,97,125.3,97C121.9,97,119.2,87.3,119.2,75.2"
	/>
<path class="st4" d="M118.1,40.8c0-3.1,3.2-5.6,7.2-5.6c4,0,7.2,2.5,7.2,5.6c0,3.1-3.2,5.6-7.2,5.6
	C121.3,46.4,118.1,43.9,118.1,40.8"/>
<path class="st4" d="M114.8,52.4c0-5.5,4.7-10,10.5-10c5.8,0,10.5,4.5,10.5,10c0,5.5-4.7,10-10.5,10
	C119.5,62.4,114.8,57.9,114.8,52.4"/>
</svg>
